<svg width="512" height="512" viewBox="0 0 512 512" fill="none" xmlns="http://www.w3.org/2000/svg">
<rect width="512" height="512" rx="128" fill="white"/>
<path d="M122.451 202.902C121.251 202.976 120.053 203.077 118.869 203.251C94.8 206.391 76.6612 225.417 76.0177 248.23C75.3741 271.043 92.3861 290.961 116.249 295.295C117.433 295.502 118.616 295.68 119.814 295.818C113.906 280.967 111.092 265.065 111.545 249.088C111.999 233.111 115.71 217.395 122.451 202.902Z" fill="black"/>
<path d="M255.268 401.16C335.438 401.16 400.428 336.17 400.428 256C400.428 175.83 335.438 110.84 255.268 110.84C175.098 110.84 110.108 175.83 110.108 256C110.108 336.17 175.098 401.16 255.268 401.16Z" fill="black"/>
<path d="M255.268 398.256C333.834 398.256 397.525 334.566 397.525 256C397.525 177.434 333.834 113.744 255.268 113.744C176.702 113.744 113.012 177.434 113.012 256C113.012 334.566 176.702 398.256 255.268 398.256Z" fill="white"/>
<path d="M389.547 202.902C390.747 202.976 391.945 203.077 393.13 203.251C417.198 206.391 435.337 225.417 435.982 248.23C436.628 271.043 419.612 290.941 395.748 295.286C394.565 295.494 393.381 295.671 392.183 295.809C398.09 280.959 400.903 265.059 400.45 249.084C399.997 233.109 396.287 217.394 389.547 202.902Z" fill="black"/>
<path d="M313.666 226.129H196.874C193.807 226.102 190.765 226.683 187.924 227.839C185.083 228.994 182.499 230.7 180.321 232.86C178.142 235.019 176.414 237.588 175.234 240.419C174.054 243.25 173.446 246.287 173.446 249.354C173.446 252.421 174.054 255.458 175.234 258.289C176.414 261.12 178.142 263.689 180.321 265.849C182.499 268.008 185.083 269.714 187.924 270.87C190.765 272.025 193.807 272.606 196.874 272.58H313.666C319.791 272.526 325.647 270.056 329.959 265.706C334.272 261.356 336.691 255.479 336.691 249.354C336.691 243.229 334.272 237.352 329.959 233.002C325.647 228.652 319.791 226.182 313.666 226.129Z" fill="black"/>
<path d="M345.946 326.95C342.979 324.836 339.429 323.694 335.785 323.682H269.188C264.549 323.682 260.099 325.525 256.819 328.805C253.538 332.086 251.696 336.535 251.696 341.174C251.696 345.814 253.538 350.263 256.819 353.543C260.099 356.824 264.549 358.667 269.188 358.667H335.789C336.977 358.673 338.163 358.556 339.327 358.318C340.487 358.068 341.621 357.71 342.714 357.251C345.562 356.024 348.031 354.062 349.871 351.566C351.71 349.07 352.853 346.131 353.182 343.048C353.511 339.965 353.014 336.85 351.743 334.023C350.472 331.195 348.472 328.756 345.948 326.956L345.946 326.95Z" fill="black"/>
<path d="M273.623 350.056C278.528 350.056 282.504 346.08 282.504 341.175C282.504 336.27 278.528 332.294 273.623 332.294C268.718 332.294 264.742 336.27 264.742 341.175C264.742 346.08 268.718 350.056 273.623 350.056Z" fill="#F1F1F1"/>
<path d="M302.485 350.056C307.389 350.056 311.366 346.08 311.366 341.175C311.366 336.27 307.389 332.294 302.485 332.294C297.58 332.294 293.604 336.27 293.604 341.175C293.604 346.08 297.58 350.056 302.485 350.056Z" fill="#F1F1F1"/>
<path d="M331.346 350.056C336.251 350.056 340.227 346.08 340.227 341.175C340.227 336.27 336.251 332.294 331.346 332.294C326.441 332.294 322.465 336.27 322.465 341.175C322.465 346.08 326.441 350.056 331.346 350.056Z" fill="#96E072"/>
</svg>
